<svg width="171" height="22" viewBox="0 0 171 22" fill="none" xmlns="http://www.w3.org/2000/svg">
<path d="M45.386 14.931C45.518 14.931 45.635 14.982 45.737 15.084L46.691 16.119C46.163 16.773 45.512 17.274 44.738 17.622C43.97 17.97 43.046 18.144 41.966 18.144C41 18.144 40.13 17.979 39.356 17.649C38.588 17.319 37.931 16.86 37.385 16.272C36.839 15.684 36.419 14.982 36.125 14.166C35.837 13.35 35.693 12.459 35.693 11.493C35.693 10.515 35.849 9.621 36.161 8.811C36.473 7.995 36.911 7.293 37.475 6.705C38.045 6.117 38.723 5.661 39.509 5.337C40.295 5.007 41.165 4.842 42.119 4.842C43.067 4.842 43.907 4.998 44.639 5.31C45.377 5.622 46.004 6.03 46.52 6.534L45.71 7.659C45.662 7.731 45.599 7.794 45.521 7.848C45.449 7.902 45.347 7.929 45.215 7.929C45.125 7.929 45.032 7.905 44.936 7.857C44.84 7.803 44.735 7.74 44.621 7.668C44.507 7.59 44.375 7.506 44.225 7.416C44.075 7.326 43.901 7.245 43.703 7.173C43.505 7.095 43.274 7.032 43.01 6.984C42.752 6.93 42.452 6.903 42.11 6.903C41.528 6.903 40.994 7.008 40.508 7.218C40.028 7.422 39.614 7.722 39.266 8.118C38.918 8.508 38.648 8.988 38.456 9.558C38.264 10.122 38.168 10.767 38.168 11.493C38.168 12.225 38.27 12.876 38.474 13.446C38.684 14.016 38.966 14.496 39.32 14.886C39.674 15.276 40.091 15.576 40.571 15.786C41.051 15.99 41.567 16.092 42.119 16.092C42.449 16.092 42.746 16.074 43.01 16.038C43.28 16.002 43.526 15.945 43.748 15.867C43.976 15.789 44.189 15.69 44.387 15.57C44.591 15.444 44.792 15.291 44.99 15.111C45.05 15.057 45.113 15.015 45.179 14.985C45.245 14.949 45.314 14.931 45.386 14.931ZM55.9724 16.002V18H48.3494V4.986H50.7704V16.002H55.9724ZM69.6549 11.493C69.6549 12.447 69.4959 13.332 69.1779 14.148C68.8659 14.958 68.4219 15.66 67.8459 16.254C67.2699 16.848 66.5769 17.313 65.7669 17.649C64.9569 17.979 64.0569 18.144 63.0669 18.144C62.0829 18.144 61.1859 17.979 60.3759 17.649C59.5659 17.313 58.8699 16.848 58.2879 16.254C57.7119 15.66 57.2649 14.958 56.9469 14.148C56.6289 13.332 56.4699 12.447 56.4699 11.493C56.4699 10.539 56.6289 9.657 56.9469 8.847C57.2649 8.031 57.7119 7.326 58.2879 6.732C58.8699 6.138 59.5659 5.676 60.3759 5.346C61.1859 5.01 62.0829 4.842 63.0669 4.842C63.7269 4.842 64.3479 4.92 64.9299 5.076C65.5119 5.226 66.0459 5.442 66.5319 5.724C67.0179 6 67.4529 6.339 67.8369 6.741C68.2269 7.137 68.5569 7.581 68.8269 8.073C69.0969 8.565 69.3009 9.099 69.4389 9.675C69.5829 10.251 69.6549 10.857 69.6549 11.493ZM67.1799 11.493C67.1799 10.779 67.0839 10.14 66.8919 9.576C66.6999 9.006 66.4269 8.523 66.0729 8.127C65.7189 7.731 65.2869 7.428 64.7769 7.218C64.2729 7.008 63.7029 6.903 63.0669 6.903C62.4309 6.903 61.8579 7.008 61.3479 7.218C60.8439 7.428 60.4119 7.731 60.0519 8.127C59.6979 8.523 59.4249 9.006 59.2329 9.576C59.0409 10.14 58.9449 10.779 58.9449 11.493C58.9449 12.207 59.0409 12.849 59.2329 13.419C59.4249 13.983 59.6979 14.463 60.0519 14.859C60.4119 15.249 60.8439 15.549 61.3479 15.759C61.8579 15.969 62.4309 16.074 63.0669 16.074C63.7029 16.074 64.2729 15.969 64.7769 15.759C65.2869 15.549 65.7189 15.249 66.0729 14.859C66.4269 14.463 66.6999 13.983 66.8919 13.419C67.0839 12.849 67.1799 12.207 67.1799 11.493ZM77.019 16.047C77.487 16.047 77.904 15.969 78.27 15.813C78.642 15.657 78.954 15.438 79.206 15.156C79.458 14.874 79.65 14.532 79.782 14.13C79.92 13.728 79.989 13.278 79.989 12.78V4.986H82.41V12.78C82.41 13.554 82.284 14.271 82.032 14.931C81.786 15.585 81.429 16.152 80.961 16.632C80.499 17.106 79.935 17.478 79.269 17.748C78.603 18.012 77.853 18.144 77.019 18.144C76.179 18.144 75.426 18.012 74.76 17.748C74.094 17.478 73.527 17.106 73.059 16.632C72.597 16.152 72.24 15.585 71.988 14.931C71.742 14.271 71.619 13.554 71.619 12.78V4.986H74.04V12.771C74.04 13.269 74.106 13.719 74.238 14.121C74.376 14.523 74.571 14.868 74.823 15.156C75.081 15.438 75.393 15.657 75.759 15.813C76.131 15.969 76.551 16.047 77.019 16.047ZM96.6964 11.493C96.6964 12.447 96.5374 13.323 96.2194 14.121C95.9014 14.919 95.4544 15.606 94.8784 16.182C94.3024 16.758 93.6094 17.205 92.7994 17.523C91.9894 17.841 91.0894 18 90.0994 18H85.1404V4.986H90.0994C91.0894 4.986 91.9894 5.148 92.7994 5.472C93.6094 5.79 94.3024 6.237 94.8784 6.813C95.4544 7.383 95.9014 8.067 96.2194 8.865C96.5374 9.663 96.6964 10.539 96.6964 11.493ZM94.2124 11.493C94.2124 10.779 94.1164 10.14 93.9244 9.576C93.7384 9.006 93.4654 8.526 93.1054 8.136C92.7514 7.74 92.3194 7.437 91.8094 7.227C91.3054 7.017 90.7354 6.912 90.0994 6.912H87.5704V16.074H90.0994C90.7354 16.074 91.3054 15.969 91.8094 15.759C92.3194 15.549 92.7514 15.249 93.1054 14.859C93.4654 14.463 93.7384 13.983 93.9244 13.419C94.1164 12.849 94.2124 12.207 94.2124 11.493ZM103.703 16.11C104.153 16.11 104.531 16.056 104.837 15.948C105.143 15.84 105.386 15.696 105.566 15.516C105.752 15.336 105.884 15.126 105.962 14.886C106.046 14.646 106.088 14.391 106.088 14.121C106.088 13.839 106.043 13.587 105.953 13.365C105.863 13.137 105.722 12.945 105.53 12.789C105.338 12.627 105.089 12.504 104.783 12.42C104.483 12.336 104.12 12.294 103.694 12.294H101.255V16.11H103.703ZM101.255 6.858V10.62H103.181C104.009 10.62 104.633 10.47 105.053 10.17C105.479 9.87 105.692 9.393 105.692 8.739C105.692 8.061 105.5 7.578 105.116 7.29C104.732 7.002 104.132 6.858 103.316 6.858H101.255ZM103.316 4.986C104.168 4.986 104.897 5.067 105.503 5.229C106.109 5.391 106.604 5.622 106.988 5.922C107.378 6.222 107.663 6.585 107.843 7.011C108.023 7.437 108.113 7.917 108.113 8.451C108.113 8.757 108.068 9.051 107.978 9.333C107.888 9.609 107.747 9.87 107.555 10.116C107.369 10.356 107.129 10.575 106.835 10.773C106.547 10.971 106.202 11.139 105.8 11.277C107.588 11.679 108.482 12.645 108.482 14.175C108.482 14.727 108.377 15.237 108.167 15.705C107.957 16.173 107.651 16.578 107.249 16.92C106.847 17.256 106.352 17.52 105.764 17.712C105.176 17.904 104.504 18 103.748 18H98.8338V4.986H103.316ZM115.919 16.047C116.387 16.047 116.804 15.969 117.17 15.813C117.542 15.657 117.854 15.438 118.106 15.156C118.358 14.874 118.55 14.532 118.682 14.13C118.82 13.728 118.889 13.278 118.889 12.78V4.986H121.31V12.78C121.31 13.554 121.184 14.271 120.932 14.931C120.686 15.585 120.329 16.152 119.861 16.632C119.399 17.106 118.835 17.478 118.169 17.748C117.503 18.012 116.753 18.144 115.919 18.144C115.079 18.144 114.326 18.012 113.66 17.748C112.994 17.478 112.427 17.106 111.959 16.632C111.497 16.152 111.14 15.585 110.888 14.931C110.642 14.271 110.519 13.554 110.519 12.78V4.986H112.94V12.771C112.94 13.269 113.006 13.719 113.138 14.121C113.276 14.523 113.471 14.868 113.723 15.156C113.981 15.438 114.293 15.657 114.659 15.813C115.031 15.969 115.451 16.047 115.919 16.047ZM135.597 11.493C135.597 12.447 135.438 13.323 135.12 14.121C134.802 14.919 134.355 15.606 133.779 16.182C133.203 16.758 132.51 17.205 131.7 17.523C130.89 17.841 129.99 18 129 18H124.041V4.986H129C129.99 4.986 130.89 5.148 131.7 5.472C132.51 5.79 133.203 6.237 133.779 6.813C134.355 7.383 134.802 8.067 135.12 8.865C135.438 9.663 135.597 10.539 135.597 11.493ZM133.113 11.493C133.113 10.779 133.017 10.14 132.825 9.576C132.639 9.006 132.366 8.526 132.006 8.136C131.652 7.74 131.22 7.437 130.71 7.227C130.206 7.017 129.636 6.912 129 6.912H126.471V16.074H129C129.636 16.074 130.206 15.969 130.71 15.759C131.22 15.549 131.652 15.249 132.006 14.859C132.366 14.463 132.639 13.983 132.825 13.419C133.017 12.849 133.113 12.207 133.113 11.493ZM148.462 11.475V16.74C147.802 17.226 147.097 17.583 146.347 17.811C145.603 18.033 144.805 18.144 143.953 18.144C142.891 18.144 141.928 17.979 141.064 17.649C140.206 17.319 139.471 16.86 138.859 16.272C138.253 15.684 137.785 14.982 137.455 14.166C137.125 13.35 136.96 12.459 136.96 11.493C136.96 10.515 137.119 9.618 137.437 8.802C137.755 7.986 138.205 7.284 138.787 6.696C139.375 6.108 140.086 5.652 140.92 5.328C141.754 5.004 142.69 4.842 143.728 4.842C144.256 4.842 144.748 4.884 145.204 4.968C145.666 5.052 146.092 5.169 146.482 5.319C146.878 5.463 147.238 5.64 147.562 5.85C147.886 6.06 148.183 6.291 148.453 6.543L147.76 7.641C147.652 7.815 147.511 7.923 147.337 7.965C147.163 8.001 146.974 7.956 146.77 7.83C146.572 7.716 146.374 7.602 146.176 7.488C145.978 7.374 145.756 7.275 145.51 7.191C145.27 7.107 144.997 7.038 144.691 6.984C144.391 6.93 144.043 6.903 143.647 6.903C143.005 6.903 142.423 7.011 141.901 7.227C141.385 7.443 140.944 7.752 140.578 8.154C140.212 8.556 139.93 9.039 139.732 9.603C139.534 10.167 139.435 10.797 139.435 11.493C139.435 12.237 139.54 12.903 139.75 13.491C139.966 14.073 140.266 14.568 140.65 14.976C141.04 15.378 141.508 15.687 142.054 15.903C142.6 16.113 143.209 16.218 143.881 16.218C144.361 16.218 144.79 16.167 145.168 16.065C145.546 15.963 145.915 15.825 146.275 15.651V13.293H144.637C144.481 13.293 144.358 13.251 144.268 13.167C144.184 13.077 144.142 12.969 144.142 12.843V11.475H148.462ZM153.225 6.912V10.521H157.779V12.384H153.225V16.065H159.003V18H150.795V4.986H159.003V6.912H153.225ZM170.238 6.975H166.314V18H163.893V6.975H159.969V4.986H170.238V6.975Z" fill="white"/>
<path d="M20.605 9.05005C20.605 8.61505 20.75 8.18005 20.75 7.60005C20.75 4.41005 18.14 1.80005 14.95 1.80005C12.63 1.80005 10.745 3.10505 9.73001 4.99005C9.44001 4.84505 8.86001 4.70005 8.42501 4.70005C6.39501 4.70005 4.80001 6.29505 4.80001 8.32505C4.80001 8.61505 4.80001 8.90505 4.94501 9.05005C2.33501 9.48505 0.450012 11.515 0.450012 14.125C0.450012 16.88 2.77001 19.2 5.52501 19.2H20.025C22.78 19.2 25.1 16.88 25.1 14.125C25.1 11.515 23.215 9.34005 20.605 9.05005Z" fill="white"/>
</svg>
